<svg xmlns="http://www.w3.org/2000/svg" viewBox="0 0 576 512" fill="#222"><path d="M552 64H129.3L121 19.6C118.8 8.2 108.9 0 97.4 0H12C5.4 0 0 5.4 0 12v8c0 6.6 5.4 12 12 12h78.7l69.9 372.9C150.3 416.3 144 431.4 144 448c0 35.3 28.7 64 64 64s64-28.7 64-64c0-11.2-2.9-22.3-8.6-32h145.2c-5.6 9.7-8.6 20.8-8.6 32 0 35.3 28.7 64 64 64s64-28.7 64-64c0-18-7.4-34.2-19.4-45.9-2.6-10.2-11.9-18.1-23.3-18.1h-296l-12-64h331.4c11.4 0 21.2-8 23.5-19.1l43.3-208C578.6 78 567.2 64 552 64zm-88 352c17.6 0 32 14.4 32 32s-14.4 32-32 32-32-14.4-32-32 14.4-32 32-32zm-256 0c17.6 0 32 14.4 32 32s-14.4 32-32 32-32-14.4-32-32 14.4-32 32-32zm294.2-128H171.3l-36-192h406.9l-40 192zM272 196v-8c0-6.6 5.4-12 12-12h36v-36c0-6.6 5.4-12 12-12h8c6.6 0 12 5.4 12 12v36h36c6.6 0 12 5.4 12 12v8c0 6.6-5.4 12-12 12h-36v36c0 6.6-5.4 12-12 12h-8c-6.6 0-12-5.4-12-12v-36h-36c-6.6 0-12-5.4-12-12z"/></svg>