<svg xmlns="http://www.w3.org/2000/svg" viewBox="0 0 576 512" fill="#222"><path d="M552 64H144.3l-8.7-44.6C133.4 8.1 123.5 0 112 0H12C5.4 0 0 5.4 0 12v24c0 6.6 5.4 12 12 12h80.2l69.6 355.7c-11 11.5-17.8 27.1-17.8 44.3 0 35.3 28.7 64 64 64s64-28.7 64-64c0-11.2-2.9-22.3-8.6-32h145.2c-5.6 9.7-8.6 20.8-8.6 32 0 35.3 28.7 64 64 64s64-28.7 64-64c0-18.1-7.6-34.5-19.7-46.1l1-4.8c3.3-15-8.1-29.1-23.5-29.1h-282l-9.4-48h312.4c11.3 0 21.1-7.9 23.5-18.9l45.2-208c3.2-15-8.2-29.1-23.5-29.1zm-88 360c13.2 0 24 10.8 24 24s-10.8 24-24 24-24-10.8-24-24 10.8-24 24-24zm-256 0c13.2 0 24 10.8 24 24s-10.8 24-24 24-24-10.8-24-24 10.8-24 24-24zm279.4-152H185l-31.3-160h368.5l-34.8 160zM272 200v-16c0-6.6 5.4-12 12-12h32v-32c0-6.6 5.4-12 12-12h16c6.6 0 12 5.4 12 12v32h32c6.6 0 12 5.4 12 12v16c0 6.6-5.4 12-12 12h-32v32c0 6.6-5.4 12-12 12h-16c-6.6 0-12-5.4-12-12v-32h-32c-6.6 0-12-5.4-12-12z"/></svg>