<svg viewBox="0 0 25.3 26" fill="#555" xmlns="http://www.w3.org/2000/svg"><path d="M9.8 0l-.1.8-.6 3c-1 .4-1.8.9-2.6 1.5l-2.9-1-.8-.2-.4.7-2 3.4-.4.7.6.5 2.3 2c-.1.5-.2 1-.2 1.6 0 .5.1 1.1.2 1.6l-2.3 2-.6.5.4.7 2 3.4.4.7.8-.3 2.9-1c.8.6 1.6 1.2 2.6 1.5l.6 3 .1.9h5.6l.2-.8.6-3c1-.4 1.8-.9 2.6-1.5l2.9 1 .8.3.4-.7 2-3.4.4-.7-.6-.5-2.3-2c.1-.5.2-1 .2-1.6 0-.5-.1-1.1-.2-1.6l2.3-2 .6-.5-.4-.7-2-3.4-.4-.7-.8.3-2.9 1c-.8-.6-1.6-1.2-2.6-1.5l-.6-3-.1-1H9.8zm1.7 2h2.4l.5 2.6.1.6.5.2c1.1.4 2.2 1 3 1.8l.4.4.6-.2 2.5-.9 1.2 2-2 1.8-.5.4.2.6c.1.6.2 1.2.2 1.8s-.1 1.2-.2 1.8l-.1.6.4.4 2 1.8-1.2 2-2.5-.9-.6-.2-.4.4c-.9.8-1.9 1.4-3 1.8l-.6.2-.1.6-.5 2.4h-2.4l-.4-2.6-.1-.6-.6-.2c-1.1-.4-2.2-1-3-1.8l-.4-.4-.6.2-2.5.9-1.2-2 2-1.8.4-.4-.2-.6c-.1-.6-.2-1.2-.2-1.8s.1-1.2.2-1.8l.2-.4-.5-.4-2-1.8 1.2-2 2.5.9.6.2.4-.4c.9-.8 1.9-1.4 3-1.8l.6-.2.2-.6.5-2.6zm1.2 6c-2.8 0-5 2.3-5 5s2.3 5 5 5 5-2.3 5-5-2.3-5-5-5zm0 2c1.7 0 3 1.3 3 3s-1.3 3-3 3-3-1.3-3-3 1.3-3 3-3z"/></svg>