<svg xmlns="http://www.w3.org/2000/svg" viewBox="0 0 576 384" fill="#222"><path d="M288 80c-10.6.2-21.1 1.8-31.2 5 4.7 8.2 7.2 17.5 7.2 27 0 30.9-25.1 56-56 56-9.5-.1-18.8-2.6-27-7.2C163.9 220 198.1 282 257.4 299c59.3 17.1 121.2-17.1 138.3-76.4s-17.1-121.2-76.4-138.3C309.1 81.4 298.6 80 288 80zm284.5 97.4C518.3 71.6 410.9 0 288 0S57.7 71.6 3.5 177.4c-4.6 9.2-4.6 20 0 29.2C57.7 312.4 165.1 384 288 384s230.3-71.6 284.5-177.4c4.7-9.2 4.7-20 0-29.2zM288 336c-98.6 0-189.1-55-237.9-144C98.9 103 189.3 48 288 48s189.1 55 237.9 144C477.1 281 386.7 336 288 336z"/></svg>