<svg xmlns="http://www.w3.org/2000/svg" viewBox="0 0 512 512" fill="#fff"><path d="M286.526 0C410.85 0 512 101.151 512 225.474c0 124.33-101.15 225.474-225.474 225.474-124.33 0-225.474-101.144-225.474-225.474C61.052 101.151 162.196 0 286.526 0zm0 409.323c101.373 0 183.848-82.475 183.848-183.848S387.9 41.626 286.526 41.626s-183.848 82.475-183.848 183.848 82.475 183.849 183.848 183.849z"/><path d="M6.098 476.472l119.328-119.328a20.81 20.81 0 0 1 29.43 29.43L35.528 505.902a20.81 20.81 0 1 1-29.43-29.43z"/></svg>