<svg viewBox="0 0 496 496" fill="#222" xmlns="http://www.w3.org/2000/svg"><path d="M475.5 20.5l-52.2 52.2C378.5 27.8 316.5 0 248 0 115.2 0 6.8 104.3.3 235.5c-.3 6.8 5.2 12.5 12 12.5h28c6.4 0 11.6-5 12-11.3C58.2 133.6 143.5 52 248 52c54.2 0 103.2 21.9 138.6 57.4l-54.1 54.1c-7.6 7.6-2.2 20.5 8.5 20.5h143c6.6 0 12-5.4 12-12V29c0-10.7-12.9-16.1-20.5-8.5zm8.2 227.5h-28c-6.4 0-11.6 5-12 11.3C437.8 362.4 352.5 444 248 444c-54.2 0-103.2-21.9-138.6-57.4l54.1-54.1c7.6-7.6 2.2-20.5-8.5-20.5H12c-6.6 0-12 5.4-12 12v143c0 10.7 12.9 16 20.5 8.5l52.2-52.2C117.5 468.2 179.5 496 248 496c132.8 0 241.2-104.3 247.7-235.5.3-6.8-5.2-12.5-12-12.5z"/></svg>