<svg xmlns="http://www.w3.org/2000/svg" viewBox="0 0 496 496" fill="#222"><path d="M484 0h-10c-6.6 0-12 5.4-12 12v110.6C418.9 49.3 339.2 0 248 0 115.2 0 6.8 104.3.3 235.5c-.3 6.8 5.2 12.5 12 12.5h10c6.4 0 11.6-4.9 12-11.3C40.2 124.2 133.1 34 248 34c82.9 0 154.7 47.1 190.3 116H324c-6.6 0-12 5.4-12 12v10c0 6.6 5.4 12 12 12h160c6.6 0 12-5.4 12-12V12c0-6.6-5.4-12-12-12zm-.3 248h-10c-6.4 0-11.6 4.9-12 11.3C455.8 372.2 362.5 462 248 462c-82.6 0-154.7-47-190.3-116H172c6.6 0 12-5.4 12-12v-10c0-6.6-5.4-12-12-12H12c-6.6 0-12 5.4-12 12v160c0 6.6 5.4 12 12 12h10c6.6 0 12-5.4 12-12V373.4C77.1 446.7 156.8 496 248 496c132.8 0 241.2-104.3 247.7-235.5.3-6.8-5.2-12.5-12-12.5z"/></svg>