<svg viewBox="0 0 402 438.5" fill="#222" xmlns="http://www.w3.org/2000/svg"><path d="M399.4 75.7c-1.7-1.7-3.9-2.6-6.6-2.6h-88.2l-20-47.7c-2.9-7-8-13-15.4-18-7.4-4.9-14.9-7.4-22.5-7.4h-91.4c-7.6 0-15.1 2.5-22.6 7.4-7.4 4.9-12.6 10.9-15.4 18l-20 47.7H9.1c-2.7 0-4.9.9-6.6 2.6C.9 77.4 0 79.6 0 82.2v18.3c0 2.7.9 4.9 2.6 6.6 1.7 1.7 3.9 2.6 6.6 2.6h27.4v271.8c0 15.8 4.5 29.3 13.4 40.4 8.9 11.1 19.7 16.7 32.3 16.7h237.5c12.6 0 23.3-5.8 32.3-17.3 8.9-11.5 13.4-25.2 13.4-41V109.6h27.4c2.7 0 4.9-.9 6.6-2.6 1.7-1.7 2.6-3.9 2.6-6.6V82.2c-.1-2.6-1-4.8-2.7-6.5zM151 39.7c1.3-1.7 2.9-2.8 4.9-3.1h90.5c1.9.4 3.5 1.4 4.9 3.1L265 73.1H137l14-33.4zm177.9 340.6c0 4.2-.7 8-2 11.6-1.3 3.5-2.7 6.1-4.1 7.7-1.4 1.6-2.4 2.4-3 2.4H82.2c-.6 0-1.6-.8-3-2.4-1.4-1.6-2.8-4.2-4.1-7.7-1.3-3.5-2-7.4-2-11.6V109.6h255.8v270.7z"/><path d="M118.8 347.2H137c2.7 0 4.9-.9 6.6-2.6 1.7-1.7 2.6-3.9 2.6-6.6V173.6c0-2.7-.9-4.9-2.6-6.6-1.7-1.7-3.9-2.6-6.6-2.6h-18.3c-2.7 0-4.9.9-6.6 2.6-1.7 1.7-2.6 3.9-2.6 6.6V338c0 2.7.9 4.9 2.6 6.6 1.8 1.7 4 2.6 6.7 2.6zm73.1 0h18.3c2.7 0 4.9-.9 6.6-2.6 1.7-1.7 2.6-3.9 2.6-6.6V173.6c0-2.7-.9-4.9-2.6-6.6-1.7-1.7-3.9-2.6-6.6-2.6h-18.3c-2.7 0-4.9.9-6.6 2.6-1.7 1.7-2.6 3.9-2.6 6.6V338c0 2.7.9 4.9 2.6 6.6 1.7 1.7 3.9 2.6 6.6 2.6zm73.1 0h18.3c2.7 0 4.9-.9 6.6-2.6 1.7-1.7 2.6-3.9 2.6-6.6V173.6c0-2.7-.9-4.9-2.6-6.6-1.7-1.7-3.9-2.6-6.6-2.6H265c-2.7 0-4.9.9-6.6 2.6-1.7 1.7-2.6 3.9-2.6 6.6V338c0 2.7.9 4.9 2.6 6.6 1.7 1.7 3.9 2.6 6.6 2.6z"/></svg>