<svg xmlns="http://www.w3.org/2000/svg" viewBox="0 0 180 49.057" fill="#fff"><path d="M38.271 36.393a25.687 25.687 0 0 1-5.592 1.964 27.1 27.1 0 0 1-5.983.653q-6.975 0-11.051-3.898-4.077-3.899-4.076-10.575 0-6.75 4.151-10.621 4.149-3.87 11.369-3.87a26.6 26.6 0 0 1 5.339.524 22.485 22.485 0 0 1 4.813 1.552V17.9a21.09 21.09 0 0 0-4.645-1.982 16.89 16.89 0 0 0-4.629-.654 8.807 8.807 0 0 0-6.63 2.403q-2.326 2.403-2.328 6.871 0 4.432 2.244 6.844a8.281 8.281 0 0 0 6.376 2.413 14.566 14.566 0 0 0 2.085-.141 7.895 7.895 0 0 0 1.73-.438v-5.423h-4.395V22.97H38.27v13.423z"/><path d="M33.717 42.567a35.013 35.013 0 0 1-7.749.848q-9.034 0-14.314-5.049-5.282-5.049-5.28-13.696 0-8.742 5.376-13.755 5.378-5.013 14.726-5.014a34.356 34.356 0 0 1 6.915.679 29.246 29.246 0 0 1 6.236 2.009s.395.212.593.347v-5.42A31.153 31.153 0 0 0 33.222.888 32.004 32.004 0 0 0 25.619 0Q13.808 0 6.903 6.603 0 13.206 0 24.544q0 11.305 6.903 17.909 6.903 6.603 18.716 6.604a31.938 31.938 0 0 0 7.602-.888 31.009 31.009 0 0 0 6.998-2.628v-5.17a33.145 33.145 0 0 1-6.502 2.196m11.101-18.282c0-3.13 2.487-5.773 6.417-5.773a5.934 5.934 0 0 1 2.465.533 4.325 4.325 0 0 1-1.132 2.487 6.886 6.886 0 0 0-2.31-.666 1.287 1.287 0 0 0-1.221.688 4.145 4.145 0 0 0-.466 2.264 3.01 3.01 0 0 0 .688 2.132 1.99 1.99 0 0 0 1.51.533 7.576 7.576 0 0 0 2.553-.599c.156.576.333 1.243.422 1.776a9.757 9.757 0 0 1-4.108 1.088c-2.708 0-4.819-1.688-4.819-4.44v-.023zm14.633-4.64c2.176-1.044 2.554-1.132 3.419-1.132a3.594 3.594 0 0 1 2.621 1.821 3.326 3.326 0 0 1 .333 1.621c0 1.398-.044 3.131-.066 4.663l1.133.044c0 .6 0 1.266-.022 1.843h-2.731c-.932 0-1.998.022-2.841.044 0-.6 0-1.244.022-1.844l.777-.066a.116.116 0 0 0 .066-.089c.022-.999 0-2.375 0-3.264a4.172 4.172 0 0 0-.199-1.798.906.906 0 0 0-.866-.444 3.55 3.55 0 0 0-1.732.644c0 1.354-.022 3.575-.044 4.93l1.021.066c0 .6 0 1.244-.022 1.821h-2.93c-.911 0-1.954.022-2.821.022 0-.599 0-1.265.022-1.843l1.066-.045a.12.12 0 0 0 .066-.11c0-3.397.022-7.75.022-11.036l-1.421-.044c0-.622.022-1.288.022-1.865 1.266-.111 4.796-.577 5.019-.577.044 0 .066.022.066.089 0 1.821-.066 4.285-.088 6.528zm8.371 1.376c0-.6.022-1.31.045-1.909 1.198-.089 4.795-.6 4.973-.6.044 0 .044.022.044.067-.022 2.419-.066 5.817-.066 8.038l1.222.066v1.821h-3.064c-.955 0-2.132.022-3.02.022 0-.578 0-1.243.022-1.821l1.177-.066a.081.081 0 0 0 .089-.089v-5.484zm3.02-7.594a1.806 1.806 0 0 1 1.955 1.799 1.998 1.998 0 0 1-3.996.044 1.94 1.94 0 0 1 2.02-1.843zm3.73 2.021c0-.6.022-1.266.044-1.844 1.221-.133 4.863-.599 5.085-.599.045 0 .067.022.067.089-.022 3.686-.067 9.414-.089 13.544l1.266.045v1.821h-3.086c-.955 0-2.132.022-3.042.022v-1.821l1.199-.066c.044 0 .066-.044.066-.089V15.537zm6.862 0c0-.6.021-1.266.044-1.844 1.222-.133 4.863-.599 5.085-.599.044 0 .066.022.066.089-.022 3.686-.066 9.414-.089 13.544l1.265.045v1.821H84.72c-.955 0-2.132.022-3.042.022v-1.821l1.199-.066c.044 0 .067-.044.067-.089V15.537zm7.393 8.705a5.45 5.45 0 0 1 5.596-5.641 3.935 3.935 0 0 1 3.021 1.199 5.216 5.216 0 0 1 1.132 3.442c-.022.311-1.021 1.265-1.198 1.287-.601.067-2.865.067-4.841.067a2.039 2.039 0 0 0 .599 1.443 2.165 2.165 0 0 0 1.644.533 11.673 11.673 0 0 0 3.131-.599 14.033 14.033 0 0 1 .421 1.82 12.38 12.38 0 0 1-4.307 1.043c-2.953 0-5.196-1.443-5.196-4.574v-.02zm5.152-3.776a1.152 1.152 0 0 0-1.044.599 2.837 2.837 0 0 0-.399 1.754c.776 0 1.864-.022 2.509-.044.134 0 .2-.089.2-.244a3.49 3.49 0 0 0-.267-1.399 1.04 1.04 0 0 0-.978-.666zm5.751.622c0-.599.021-1.244.021-1.821 1.11-.066 4.397-.644 4.53-.644.021 0 .044.022.044.066.11.466.2.911.311 1.376l.112.024c2.154-1.31 2.643-1.488 3.664-1.488a3.085 3.085 0 0 1 2.31 1.621 3.612 3.612 0 0 1 .51 1.977c0 1.243-.044 3.109-.089 4.508l1.111.066c0 .578 0 1.244-.022 1.821h-2.864c-.955 0-1.998.022-2.776.022 0-.578.022-1.243.022-1.821l.888-.066a.096.096 0 0 0 .089-.089c.023-.91 0-2.131 0-2.997a4.744 4.744 0 0 0-.177-1.909.84.84 0 0 0-.844-.466 3.406 3.406 0 0 0-1.777.754c-.021 1.31-.066 3.419-.066 4.686l.955.066c0 .6 0 1.244-.021 1.821h-2.776c-.933 0-2.087.022-2.953.022 0-.578.022-1.243.022-1.821l1.088-.066a.082.082 0 0 0 .089-.089v-5.484zm16.121 4.796a3.676 3.676 0 0 1-2.376-3.219c0-2.398 2.376-4.063 5.174-4.063a11.414 11.414 0 0 1 2.176.2 2.515 2.515 0 0 0 .488.066c1.044-.044 2.732-.133 3.309-.178a14.99 14.99 0 0 1 .045 1.999c-.444 0-1.266.022-1.799.022l-.045.089a2.784 2.784 0 0 1 .467 1.599 3.676 3.676 0 0 1-.999 2.442 5.718 5.718 0 0 1-4.44 1.377 1.143 1.143 0 0 0-.488.755c0 .466.443.51 2.22.577 2.42.067 3.087.177 3.908.755a2.08 2.08 0 0 1 1.043 2.065c0 1.465-1.087 2.731-2.953 3.375a11.088 11.088 0 0 1-3.797.6c-3.108 0-4.996-.955-4.996-2.642 0-.289.156-.467.467-.688.999-.667 1.599-.999 2.109-1.354v-.133c-.866-.355-1.688-.777-1.688-2.021 0-.222.088-.311 2.176-1.466v-.157zm5.151 5.196c0-.578-.244-.755-1.621-.844-1.043-.066-1.843-.155-2.309-.178a2.231 2.231 0 0 0-.578 1.421c0 .777.955 1.177 2.021 1.177a3.635 3.635 0 0 0 1.865-.422 1.303 1.303 0 0 0 .621-1.132v-.022zm-3.907-8.726c0 1.821.576 2.288 1.354 2.288.8 0 1.289-.755 1.289-2.421a2.973 2.973 0 0 0-.334-1.576 1.022 1.022 0 0 0-.955-.467c-.799 0-1.354.822-1.354 2.154zm8.327-1.332c0-.6.021-1.266.044-1.82 1-.112 4.285-.6 4.418-.6.022 0 .044.022.044.067.067.932.135 1.865.2 2.82l.156.021c1.377-2.62 1.888-2.93 2.998-2.93a4.75 4.75 0 0 1 1.598.311 6.533 6.533 0 0 1-1.044 3.197 9.153 9.153 0 0 0-1.42-.222.941.941 0 0 0-.622.2 4.468 4.468 0 0 0-1.155 1.554 4.098 4.098 0 0 0-.333 1.887c-.021.377-.021.888-.021 1.221l1.843.066c0 .578-.021 1.222-.045 1.799h-3.375c-.954 0-2.197.022-3.13.022 0-.578 0-1.243.021-1.799l1.044-.066a.096.096 0 0 0 .089-.089v-5.596zm10.147.088c0-.6.021-1.31.044-1.909 1.199-.089 4.797-.6 4.974-.6.044 0 .044.022.044.067-.021 2.419-.066 5.817-.066 8.038l1.223.066v1.821h-3.065c-.955 0-2.132.022-3.02.022 0-.578 0-1.243.022-1.821l1.176-.066a.082.082 0 0 0 .09-.089v-5.484zm3.019-7.594a1.805 1.805 0 0 1 1.954 1.799 1.998 1.998 0 0 1-3.996.044 1.94 1.94 0 0 1 2.021-1.843zm3.73 2.021c0-.6.023-1.266.045-1.844 1.221-.133 4.862-.599 5.084-.599.046 0 .067.022.067.089-.021 3.686-.067 9.414-.089 13.544l1.267.045v1.821h-3.087c-.955 0-2.133.022-3.042.022v-1.821l1.198-.066c.044 0 .067-.044.067-.089V15.537zm6.863 0c0-.6.021-1.266.043-1.844 1.223-.133 4.863-.599 5.086-.599.043 0 .065.022.065.089-.022 3.686-.065 9.414-.088 13.544l1.265.045v1.821h-3.086c-.954 0-2.131.022-3.042.022v-1.821l1.199-.066c.044 0 .067-.044.067-.089V15.537zm7.393 8.705a5.449 5.449 0 0 1 5.596-5.641 3.935 3.935 0 0 1 3.02 1.199 5.216 5.216 0 0 1 1.132 3.442c-.021.311-1.021 1.265-1.198 1.287-.601.067-2.865.067-4.841.067a2.043 2.043 0 0 0 .599 1.443 2.166 2.166 0 0 0 1.644.533 11.696 11.696 0 0 0 3.132-.599 14.377 14.377 0 0 1 .422 1.82 12.39 12.39 0 0 1-4.309 1.043c-2.953 0-5.195-1.443-5.195-4.574v-.02zm5.152-3.776a1.155 1.155 0 0 0-1.045.599 2.844 2.844 0 0 0-.398 1.754c.776 0 1.865-.022 2.509-.044.134 0 .2-.089.2-.244a3.49 3.49 0 0 0-.267-1.399 1.04 1.04 0 0 0-.978-.666zm5.751.622c0-.599.021-1.244.021-1.821 1.111-.066 4.397-.644 4.53-.644.021 0 .045.022.045.066.11.466.199.911.311 1.376l.112.024c2.152-1.31 2.641-1.488 3.662-1.488a3.081 3.081 0 0 1 2.309 1.621 3.597 3.597 0 0 1 .511 1.977c0 1.243-.044 3.109-.088 4.508l1.11.066c0 .578 0 1.244-.022 1.821h-2.864c-.955 0-1.998.022-2.776.022 0-.578.023-1.243.023-1.821l.888-.066a.094.094 0 0 0 .088-.089c.023-.91 0-2.131 0-2.997a4.744 4.744 0 0 0-.177-1.909.84.84 0 0 0-.844-.466 3.406 3.406 0 0 0-1.777.754c-.021 1.31-.065 3.419-.065 4.686l.954.066c0 .6 0 1.244-.021 1.821h-2.775c-.934 0-2.087.022-2.953.022 0-.578.021-1.243.021-1.821l1.088-.066a.081.081 0 0 0 .089-.089v-5.484zM50.028 38.296l-1.278 3.611h-1.866l-2.066-5.309h1.316l1.66 4.253h.069l1.5-4.253h1.324l1.515 4.253h.091l1.622-4.253h1.316l-2.058 5.309h-1.867l-1.278-3.611zm10.643 0l-1.277 3.611h-1.867l-2.066-5.309h1.316l1.661 4.253h.068l1.5-4.253h1.324l1.515 4.253h.092l1.622-4.253h1.316l-2.059 5.309h-1.867l-1.278-3.611zm10.644 0l-1.278 3.611H68.17l-2.065-5.309h1.316l1.66 4.253h.069l1.499-4.253h1.324l1.515 4.253h.092l1.622-4.253h1.316l-2.059 5.309h-1.866l-1.278-3.611zm6.098 1.797h1.814v1.814h-1.814zm9.16-.022c-.008 1.415-.352 1.836-1.92 1.836h-2.364c-1.469 0-1.936-.451-1.936-1.875v-1.507c0-1.553.498-1.989 2.058-1.989h2.112c1.255 0 2.042.36 2.042 1.852h-1.27c0-.558-.283-.795-1.018-.795h-1.629c-.85 0-1.025.146-1.025.979v1.316c0 .811.298.964 1.025.964h1.629c.757 0 1.018-.137 1.018-.78h1.278zm2.035-1.438h3.283v-2.035h1.269v5.309h-1.269v-2.219h-3.283v2.219h-1.27v-5.309h1.27v2.035zm5.61-2.035h1.271v5.31h-1.271zm2.295 0h1.269v4.253h3.282v1.056h-4.551v-5.309zm5.379 0h1.27v4.253h3.282v1.056h-4.552v-5.309zm5.44 0h5.424V37.6h-4.153v1.163h4.024v.925h-4.024v1.217h4.153v1.002h-5.424v-5.309zm8.501 0l3.236 4.253h.176v-4.253h1.271v5.309h-2.181l-3.19-4.254h-.177v4.254h-1.27v-5.309h2.135zm11.989 2.195v1.416c0 1.277-.558 1.698-1.928 1.698h-2.57c-1.301 0-1.959-.528-1.959-1.813v-1.629c0-1.423.574-1.928 1.959-1.928h2.548c1.285 0 1.95.306 1.95 1.63h-1.27c0-.406-.245-.574-1.01-.574h-1.874c-.766 0-1.033.237-1.033 1.033v1.346c0 .719.176.88 1.018.88h2.089c.635 0 .811-.168.811-.55v-.566h-2.096v-.941h3.365zm5.533 3.114v-.826c0-.52-.276-.75-1.011-.75h-2.464v1.576h-1.27v-5.309h4.032c1.102 0 1.89.359 1.89 1.867a1.436 1.436 0 0 1-.773 1.385c.528.176.865.383.865.956v1.102h-1.269zm-3.474-2.632h2.655c.543 0 .727-.238.727-.811 0-.559-.16-.811-.727-.811h-2.655zm5.755-2.677h1.27v5.31h-1.27zm2.295 0h1.27v4.253h3.282v1.056h-4.552v-5.309zm5.379 0h1.269v4.253h3.283v1.056h-4.552v-5.309zm5.441 0h5.424V37.6h-4.154v1.163h4.024v.925h-4.024v1.217h4.154v1.002h-5.424v-5.309zm8.501 0l3.236 4.253h.176v-4.253h1.271v5.309h-2.181l-3.191-4.254h-.176v4.254h-1.27v-5.309h2.135zm5.974 3.495h1.814v1.814h-1.814zm7.753 1.814v-.826c0-.52-.275-.75-1.011-.75h-2.463v1.576h-1.27v-5.309h4.032c1.101 0 1.889.359 1.889 1.867a1.437 1.437 0 0 1-.772 1.385c.527.176.864.383.864.956v1.102h-1.269zm-3.474-2.632h2.654c.544 0 .728-.238.728-.811 0-.559-.161-.811-.728-.811h-2.654zm6.71-2.677v3.297c0 .734.299.956.979.956h1.752c.628 0 .927-.237.927-.964v-3.29h1.27v3.42c0 1.4-.528 1.89-1.897 1.89h-2.334c-1.339 0-1.966-.604-1.966-1.89v-3.42h1.269z"/></svg>