<svg width="34px" viewBox="0 0 370.854 511.999" xmlns="http://www.w3.org/2000/svg"><path d="M24.545 121.47a173.832 173.832 0 0 0-9.412 44.706c-2.29 34.863 8.874 76.276 30.588 125.295 36.339 82.032 81.872 139.417 108.824 172.94a957.9 957.9 0 0 0 24.117 28.824 240.608 240.608 0 0 0 52.353-44.706c13.947-15.935 21.427-28.843 41.765-65.294 30.603-54.85 45.905-82.275 50-91.176 22.73-49.411 34.095-74.117 34.706-107.647.242-13.28.437-49.631-21.765-87.06-28.09-47.355-73.14-64.582-91.176-71.176-16.83-6.152-59.54-21.076-110.589-5.882C85.621 34.68 58.553 67.513 49.251 79.118a161.097 161.097 0 0 0-24.706 42.353z" fill="#5472e8" data-name="Слой 2"/><path d="M185.427 93.134a93.293 93.293 0 1 0 93.291 93.293 93.398 93.398 0 0 0-93.291-93.293zm0 153.194a59.901 59.901 0 1 1 59.9-59.901 59.967 59.967 0 0 1-59.9 59.901z" fill="#fff"/><path d="M185.427 0C83.182 0 0 83.182 0 185.426c0 126.888 165.939 313.167 173.004 321.035a16.702 16.702 0 0 0 24.846 0c7.065-7.868 173.004-194.147 173.004-321.035C370.852 83.182 287.671 0 185.427 0zm0 469.729C129.58 403.391 33.392 272.512 33.392 185.428c0-83.834 68.202-152.036 152.035-152.036s152.035 68.202 152.035 152.035c-.001 87.088-96.174 217.943-152.035 284.302z" fill="#fff"/></svg>