<?xml version="1.0" standalone="no"?>
<!DOCTYPE svg PUBLIC "-//W3C//DTD SVG 20010904//EN"
 "http://www.w3.org/TR/2001/REC-SVG-20010904/DTD/svg10.dtd">
<svg version="1.0" xmlns="http://www.w3.org/2000/svg"
 width="1637.000000pt" height="1637.000000pt" viewBox="0 0 1637.000000 1637.000000"
 preserveAspectRatio="xMidYMid meet">
<metadata>
Created by potrace 1.11, written by Peter Selinger 2001-2013
</metadata>
<g transform="translate(0.000000,1637.000000) scale(0.100000,-0.100000)"
fill="#000000" stroke="none">
<path d="M9807 16364 c-1 -1 -103 -5 -227 -8 -124 -4 -245 -9 -270 -11 -25 -2
-94 -6 -155 -9 -60 -4 -128 -8 -150 -11 -22 -2 -74 -7 -115 -10 -41 -3 -91 -8
-110 -10 -19 -2 -66 -6 -103 -10 -37 -3 -76 -8 -85 -10 -9 -1 -48 -6 -85 -10
-37 -3 -76 -8 -85 -10 -9 -1 -39 -6 -67 -9 -27 -4 -95 -14 -150 -22 -55 -9
-109 -17 -120 -18 -32 -5 -218 -38 -240 -43 -11 -2 -54 -10 -95 -18 -41 -8
-86 -17 -100 -20 -14 -3 -36 -8 -50 -11 -361 -71 -949 -245 -1330 -393 -275
-107 -364 -146 -660 -290 -378 -184 -841 -465 -1125 -683 -5 -4 -35 -27 -65
-51 -30 -23 -73 -56 -95 -72 -56 -41 -316 -259 -400 -336 -80 -72 -413 -404
-495 -494 -403 -438 -793 -1004 -1068 -1548 -101 -201 -141 -286 -241 -522
-129 -303 -307 -852 -376 -1164 -2 -9 -19 -86 -38 -171 -20 -85 -38 -172 -41
-194 -4 -21 -8 -41 -10 -45 -2 -3 -7 -31 -11 -61 -4 -30 -8 -57 -10 -60 -2 -3
-6 -26 -10 -50 -3 -25 -8 -52 -10 -60 -4 -16 -9 -51 -21 -135 -3 -27 -8 -59
-10 -69 -4 -23 -21 -151 -29 -221 -3 -27 -8 -65 -11 -84 -2 -18 -7 -63 -10
-100 -3 -36 -7 -82 -9 -101 -2 -19 -6 -73 -10 -120 -4 -47 -8 -104 -10 -128
-26 -292 -27 -1445 -1 -1578 2 -12 7 -66 10 -120 4 -55 8 -111 10 -124 3 -14
7 -61 11 -104 4 -43 8 -86 10 -95 1 -9 6 -47 10 -85 4 -38 8 -79 10 -90 2 -12
6 -43 10 -71 14 -108 16 -121 21 -145 2 -14 7 -43 9 -65 3 -22 9 -62 15 -90 5
-27 12 -64 15 -82 4 -26 23 -122 61 -308 2 -11 6 -33 10 -50 15 -75 99 -403
135 -530 95 -329 245 -734 386 -1042 96 -210 179 -371 318 -618 52 -93 189
-310 197 -313 4 -2 8 -8 8 -14 0 -5 27 -47 60 -94 33 -46 60 -87 60 -91 0 -3
7 -13 15 -22 9 -9 55 -70 103 -136 303 -414 751 -887 1156 -1220 27 -22 58
-48 70 -59 11 -10 77 -62 146 -115 618 -480 1314 -858 2095 -1139 283 -102
746 -239 936 -277 8 -2 47 -11 85 -20 87 -20 113 -26 144 -31 14 -2 45 -9 70
-14 25 -6 56 -13 70 -15 14 -3 52 -10 85 -16 33 -6 69 -13 80 -14 34 -5 89
-16 105 -20 8 -2 38 -7 65 -10 72 -9 127 -18 195 -30 8 -2 40 -6 71 -9 31 -4
66 -8 77 -11 11 -2 49 -6 84 -10 35 -3 77 -8 93 -10 53 -7 118 -14 190 -20 39
-3 88 -8 110 -10 22 -2 76 -7 120 -10 44 -3 109 -8 145 -10 277 -20 1190 -28
1452 -12 122 7 152 9 303 22 131 10 295 26 316 30 8 2 49 6 90 10 40 4 76 8
79 10 3 1 32 6 65 9 33 4 116 16 185 27 164 26 181 28 205 33 27 5 184 34 215
40 82 14 391 82 505 111 33 9 71 18 85 21 14 2 32 7 40 10 8 3 25 8 37 10 177
34 1027 317 1258 420 17 7 77 33 135 57 253 107 719 330 731 349 10 17 9 1718
-1 1718 -5 0 -71 -28 -147 -61 -312 -139 -750 -305 -1083 -411 -137 -43 -522
-156 -555 -162 -11 -2 -84 -20 -163 -40 -127 -32 -237 -58 -312 -72 -14 -3
-45 -10 -70 -15 -25 -6 -56 -13 -70 -15 -14 -3 -56 -11 -95 -19 -74 -14 -220
-41 -270 -49 -197 -32 -289 -46 -335 -51 -30 -4 -64 -9 -75 -11 -11 -2 -44 -7
-74 -10 -30 -3 -62 -7 -71 -9 -10 -2 -53 -6 -96 -10 -43 -4 -86 -9 -95 -10 -9
-2 -52 -6 -95 -10 -43 -4 -97 -9 -119 -11 -22 -2 -80 -6 -130 -9 -49 -4 -106
-8 -125 -11 -214 -24 -1201 -24 -1450 1 -19 1 -73 6 -120 10 -135 10 -182 14
-227 20 -24 3 -64 7 -90 10 -27 3 -64 8 -83 11 -19 2 -53 7 -75 9 -22 3 -96
14 -165 26 -69 11 -138 22 -155 25 -462 75 -1083 261 -1524 456 -120 53 -437
210 -516 256 -16 9 -57 33 -90 52 -93 53 -270 168 -379 245 -54 39 -106 75
-115 80 -9 6 -18 12 -21 15 -3 3 -45 37 -95 75 -105 82 -257 209 -334 280
-211 195 -472 476 -601 645 -19 25 -37 47 -40 50 -35 31 -261 363 -365 535
-79 132 -233 426 -288 551 -52 118 -61 139 -62 144 -1 3 -9 23 -19 45 -9 22
-26 63 -36 90 -42 116 -122 341 -125 355 -2 8 -25 85 -49 170 -39 131 -108
414 -122 500 -3 14 -11 59 -19 100 -8 41 -17 91 -20 110 -3 19 -10 60 -15 90
-11 68 -17 110 -25 175 -3 28 -8 59 -10 70 -2 11 -7 56 -11 100 -3 44 -8 89
-10 100 -2 11 -6 63 -10 115 -3 52 -7 113 -9 135 -22 235 -22 1030 0 1168 2
12 6 64 10 114 3 51 8 107 10 125 2 18 6 60 10 93 3 33 8 71 10 85 3 24 8 58
21 168 3 26 7 54 9 62 2 8 7 33 10 55 3 23 7 50 9 60 2 11 7 40 11 65 4 25 9
52 11 60 2 8 13 62 24 120 127 628 351 1226 658 1755 61 107 223 360 254 400
13 16 121 161 143 191 119 165 435 503 655 702 173 156 474 391 630 492 8 5
31 20 50 33 251 165 593 350 865 466 66 28 128 56 137 61 10 6 22 10 27 10 5
0 26 8 47 17 22 9 44 18 49 19 6 1 39 14 74 28 172 69 632 207 856 257 28 6
57 12 65 14 24 6 312 63 350 70 47 8 81 14 105 19 11 2 45 7 75 11 30 4 62 9
71 10 9 2 40 6 70 10 30 3 65 8 79 10 14 2 50 7 80 10 30 3 66 8 80 10 23 3
53 6 210 20 30 3 91 8 135 11 44 3 100 7 125 9 295 23 987 23 1360 0 151 -9
339 -23 390 -30 33 -4 66 -7 200 -20 30 -3 71 -7 90 -10 19 -3 55 -7 80 -10
25 -3 63 -8 85 -11 22 -3 51 -7 65 -9 40 -5 112 -16 145 -21 17 -3 41 -7 55
-9 49 -6 227 -37 325 -55 55 -11 111 -21 125 -24 14 -2 45 -9 70 -15 25 -5 59
-12 75 -15 45 -8 60 -12 180 -41 61 -14 118 -28 127 -30 16 -3 145 -38 308
-82 30 -8 60 -16 65 -17 6 -2 17 -6 25 -9 8 -3 33 -11 55 -16 22 -6 128 -39
235 -75 436 -143 892 -327 1080 -435 48 -28 90 -51 93 -51 3 0 5 406 4 902
l-2 901 -151 76 c-82 42 -204 101 -270 130 -65 30 -146 67 -179 82 -134 61
-392 166 -615 248 -234 86 -783 259 -907 286 -10 2 -70 17 -133 33 -104 27
-314 76 -365 86 -11 2 -92 18 -180 35 -88 17 -171 33 -185 35 -14 2 -41 7 -60
10 -77 13 -101 17 -265 41 -93 13 -190 27 -215 30 -25 2 -65 7 -90 10 -91 11
-117 13 -195 20 -44 3 -93 8 -110 10 -16 2 -75 7 -130 10 -55 4 -120 8 -145
10 -124 11 -875 26 -883 19z"/>
<path d="M10267 13014 c-1 -1 -67 -5 -147 -8 -80 -4 -171 -9 -202 -11 -154
-13 -187 -16 -233 -21 -54 -5 -95 -10 -162 -19 -24 -3 -62 -7 -85 -10 -24 -3
-54 -8 -68 -10 -14 -3 -41 -7 -60 -10 -19 -3 -46 -7 -60 -10 -14 -3 -39 -7
-56 -10 -17 -2 -66 -12 -110 -20 -43 -9 -90 -18 -104 -21 -14 -3 -33 -7 -42
-10 -10 -3 -30 -7 -45 -10 -16 -3 -46 -10 -68 -16 -22 -5 -47 -12 -55 -14
-182 -42 -558 -165 -685 -224 -11 -5 -60 -26 -110 -46 -131 -55 -390 -188
-540 -279 -71 -43 -132 -81 -135 -85 -3 -4 -16 -13 -30 -20 -13 -7 -65 -42
-115 -78 -329 -238 -622 -516 -860 -816 -102 -129 -223 -301 -277 -393 -174
-298 -275 -507 -367 -759 -37 -100 -124 -375 -136 -428 -2 -11 -20 -88 -39
-171 -19 -82 -37 -166 -40 -185 -3 -19 -10 -57 -15 -85 -5 -27 -12 -70 -16
-95 -3 -25 -8 -56 -10 -70 -2 -14 -7 -50 -10 -80 -3 -30 -8 -66 -10 -80 -3
-24 -14 -124 -20 -200 -31 -364 -23 -896 20 -1275 2 -16 6 -55 10 -85 3 -30 8
-66 10 -80 3 -14 7 -41 10 -60 13 -78 16 -97 25 -150 94 -531 287 -1068 536
-1491 552 -938 1408 -1608 2494 -1951 116 -36 352 -101 410 -112 14 -3 48 -10
75 -16 28 -5 61 -13 75 -15 14 -3 45 -10 70 -15 25 -5 61 -12 80 -15 19 -3 78
-11 130 -19 52 -8 118 -17 145 -21 28 -3 64 -8 80 -10 100 -13 349 -33 515
-41 96 -4 619 -4 725 0 93 4 301 17 345 21 100 9 180 17 224 20 27 3 66 7 87
10 22 3 57 7 79 10 22 3 58 7 80 10 22 3 59 7 83 10 23 3 53 8 67 10 14 3 39
7 55 9 213 35 330 56 496 92 63 13 124 26 135 28 10 2 39 9 64 16 25 7 52 13
60 15 90 18 470 128 658 191 306 102 659 243 933 372 l106 50 0 2239 0 2240
-1871 -1 -1871 -1 0 -802 c0 -442 2 -803 5 -803 3 0 332 -1 733 -2 l727 -1 0
-903 0 -902 -72 -25 c-158 -55 -253 -79 -413 -106 -110 -18 -141 -22 -260 -36
-204 -24 -791 -38 -945 -22 -527 55 -997 237 -1405 543 -137 103 -168 129
-269 229 -273 272 -503 680 -625 1112 -38 135 -75 295 -86 378 -3 22 -8 46
-10 53 -3 7 -7 39 -10 70 -4 31 -8 64 -10 72 -3 8 -7 50 -10 92 -3 43 -8 87
-10 98 -6 32 -18 316 -18 425 0 104 12 393 18 442 2 15 6 57 10 93 3 36 8 76
10 90 2 14 7 45 10 70 8 59 14 99 20 130 3 14 7 41 10 60 20 122 99 398 160
554 100 258 277 569 400 702 5 6 32 37 60 69 75 87 139 146 280 260 84 67 250
185 260 185 3 0 28 15 57 34 192 122 515 257 773 322 109 28 115 29 195 44
113 20 135 23 260 37 79 9 512 9 705 0 173 -9 193 -10 405 -32 53 -5 308 -44
330 -50 8 -2 31 -6 50 -9 19 -3 46 -8 60 -11 14 -3 40 -8 58 -11 18 -3 113
-26 210 -50 528 -133 1095 -358 1596 -633 72 -39 132 -71 136 -71 3 0 5 431 5
958 1 854 -1 958 -15 969 -32 24 -302 133 -540 219 -157 57 -503 168 -556 178
-11 2 -73 18 -139 34 -66 17 -149 38 -185 46 -73 18 -354 74 -409 82 -20 3
-61 9 -91 14 -30 5 -73 12 -95 15 -22 4 -51 8 -65 10 -112 18 -389 48 -535 60
-38 3 -95 7 -125 10 -162 13 -863 28 -873 19z"/>
</g>
</svg>
